<svg height='100px' width='100px'  fill="#FFFFFF" xmlns="http://www.w3.org/2000/svg" data-name="Layer 1" viewBox="0 0 100 100" x="0px" y="0px"><title>business card-54</title><path d="M50,6.09A43.91,43.91,0,1,0,93.91,50,43.91,43.91,0,0,0,50,6.09ZM28.56,34.27h42.5a.58.58,0,0,1,.36,1L50.17,51.91a.58.58,0,0,1-.72,0L28.21,35.31A.58.58,0,0,1,28.56,34.27ZM25,63.18v-27a.58.58,0,0,1,1-.44L42.39,50.22a.58.58,0,0,1,0,.9L25.93,63.64A.58.58,0,0,1,25,63.18Zm46.06,2.55H28.56a.58.58,0,0,1-.36-1L44.64,51.85a.58.58,0,0,1,.72,0l4.1,3.2a.58.58,0,0,0,.72,0l4.1-3.2a.58.58,0,0,1,.72,0L71.42,64.69A.58.58,0,0,1,71.06,65.73ZM75,63.18a.58.58,0,0,1-.93.46L57.64,51.12a.58.58,0,0,1,0-.9L74,35.75a.58.58,0,0,1,1,.44Z"></path></svg>