<svg xmlns="http://www.w3.org/2000/svg" xmlns:xlink="http://www.w3.org/1999/xlink" width="100" height="100" viewBox="0 0 100 100"><g><g transform="translate(50 50) scale(0.69 0.69) rotate(0) translate(-50 -50)" style="fill:#000000"><svg fill="#000000" xmlns="http://www.w3.org/2000/svg" xmlns:xlink="http://www.w3.org/1999/xlink" version="1.1" x="0px" y="0px" viewBox="0 0 100 100" style="enable-background:new 0 0 100 100;" xml:space="preserve"><path d="M36.5,44.5h44.9c3,0,5.5,2.5,5.5,5.5v0c0,3-2.5,5.5-5.5,5.5H36.5c-3,0-5.5-2.5-5.5-5.5v0C31,46.9,33.4,44.5,36.5,44.5z"></path><path d="M55.9,13h25.4c3,0,5.5,2.5,5.5,5.5v0c0,3-2.5,5.5-5.5,5.5H55.9c-3,0-5.5-2.5-5.5-5.5v0C50.4,15.5,52.9,13,55.9,13z"></path><path d="M19,75.9h62.4c3,0,5.5,2.5,5.5,5.5v0c0,3-2.5,5.5-5.5,5.5H19c-3,0-5.5-2.5-5.5-5.5v0C13.5,78.4,15.9,75.9,19,75.9z"></path></svg></g></g></svg>