<svg height='100px' width='100px'  fill="#1A1A1A" xmlns="http://www.w3.org/2000/svg" xmlns:xlink="http://www.w3.org/1999/xlink" version="1.1" x="0px" y="0px" viewBox="0 0 50 50" enable-background="new 0 0 50 50" xml:space="preserve"><g><path d="M44.1,36.1C42,31,37,28.1,32,26.3c-0.8,1.1-3.9,4.3-11.8,1.9c0,0,6,1,10.3-2.5c-4.2-1.3-8-1.9-9.7-2.4   c5.5-0.5,11.6,0.7,16.7,3.3c-0.4-5-4.2-8.7-4.2-8.7c5.4,4,6,7.6,5.8,9.6c2.5,1.5,4.6,3.3,6.4,5.4c3.8-2.9,2.9-9.1,0.4-12   c-7.8-8.9-19-3.7-30.8-3.7c-6.6,0-10.1-4.4-8.8-11c0.2-1,0.4-2,0.7-3.3c0,0-3.3,3.3-5,8.4c0.2,0.1,2,1.2,2.2,1.3L1.5,13   c-0.8,3.3-0.8,7.2,1.1,11.3c2-1.1,3.4-1.5,3.4-1.5c-1.2,1.4-0.9,1.6-2.4,3.4c1.6,2.7,3.9,5.5,7.4,8.3c1.5-1.5,2.8-2.7,4.6-4.5   c-0.7,3.3-1.1,5.2-1.1,7c3.7,2.5,8.3,5,14.1,7.4c0.4-0.4,1.3-1.9,1.6-1.9c0.2,0.9,0.4,1.8,0.6,2.8c5.4-0.4,9.3-3.2,12.6-7.5   c0.9,4.1,2.8,7,5.6,9.1v-2.5C46.1,42.6,45.4,39.2,44.1,36.1z"></path></g></svg>