<svg id="cube-bg" xmlns="http://www.w3.org/2000/svg" xmlns:xlink="http://www.w3.org/1999/xlink" viewBox="0 0 500 500"><defs><clipPath id="clip-path"><rect id="canvas-bg" x="530.47" width="750" height="500" fill="none"/></clipPath></defs><title>Mesa de trabajo 1</title><g id="cube-all-section"><g id="cube-shapes-section"><g clip-path="url(#clip-path)"><g id="cube-shapes-all"><g id="cube-shape-left"><polygon points="381.69 84.2 381.69 26.9 431.28 55.54 431.28 55.57 381.69 84.2" fill="#ffa73b"/><polygon points="431.28 55.48 431.28 -1.7 431.33 -1.72 480.84 26.87 431.28 55.48" fill="#0c2e3a"/><polygon points="431.28 55.57 431.28 55.48 480.84 26.87 480.88 26.9 480.88 84.2 431.28 55.57" fill="#78001b"/><polygon points="431.28 170.1 431.28 112.8 480.87 141.44 480.87 141.47 431.28 170.1" fill="#ffa73b"/><polygon points="431.28 112.8 431.28 112.75 480.81 84.16 480.87 84.2 480.87 141.44 431.28 112.8" fill="#f5340b"/><polygon points="431.28 112.75 431.28 55.57 480.81 84.16 431.28 112.75" fill="#f5340b"/><polygon points="381.73 84.18 431.28 55.57 431.28 112.75 431.24 112.77 381.73 84.18" fill="#ff823b"/><polygon points="381.69 84.2 381.69 26.9 431.28 55.54 431.28 55.57 381.69 84.2" fill="#ffa73b"/><polygon points="431.33 -1.72 480.88 -30.33 480.88 26.86 480.84 26.87 431.33 -1.72" fill="#00a6a6"/><polygon points="431.28 55.48 431.28 -1.7 431.33 -1.72 480.84 26.87 431.28 55.48" fill="#0c2e3a"/><polygon points="431.28 55.57 431.28 55.48 480.84 26.87 480.88 26.9 480.88 84.2 431.28 55.57" fill="#ffa73b"/><polygon points="480.88 84.2 480.88 26.9 530.47 55.54 530.47 55.57 480.88 84.2" fill="#78001b"/><polygon points="480.88 26.9 480.88 26.86 530.4 -1.73 530.47 -1.7 530.47 55.54 480.88 26.9" fill="#78001b"/><polygon points="431.28 55.57 431.28 55.48 480.84 26.87 480.88 26.9 480.88 84.2 431.28 55.57" fill="#78001b"/><polygon points="480.92 84.18 530.47 55.57 530.47 112.75 530.43 112.77 480.92 84.18" fill="#018790"/><polygon points="480.87 141.38 480.87 84.2 480.92 84.18 530.43 112.77 480.87 141.38" fill="#018790"/><polygon points="480.87 198.79 480.87 198.71 530.43 170.1 530.47 170.12 530.47 227.43 480.87 198.79" fill="#1dcdc3"/><polygon points="480.88 84.2 480.88 26.9 530.47 55.54 530.47 55.57 480.88 84.2" fill="#f5340b"/><polygon points="480.88 26.9 480.88 26.86 530.4 -1.73 530.47 -1.7 530.47 55.54 480.88 26.9" fill="#f5340b"/><polygon points="480.88 26.86 480.88 -30.33 530.4 -1.73 480.88 26.86" fill="#00a6a6"/><polygon points="431.33 -1.72 480.88 -30.33 480.88 26.86 480.84 26.87 431.33 -1.72" fill="#ff823b"/><polygon points="431.28 55.57 431.28 55.48 480.84 26.87 480.88 26.9 480.88 84.2 431.28 55.57" fill="#ffa73b"/></g></g></g></g></g></svg>