<?xml version="1.0"?>
<svg xmlns="http://www.w3.org/2000/svg" height="512px" viewBox="0 0 448 448" width="512px"><g><path d="m448 149.332031h-106.667969v-21.332031h85.335938v-85.332031h21.332031zm0 0" data-original="#000000" class="active-path" data-old_color="#ffffff" fill="#ffffff"/><path d="m224 448c-123.464844 0-224-100.535156-224-224s100.535156-224 224-224c61.066406 0 118.132812 24.132812 160.667969 68l60.398437 63.332031-15.464844 14.667969-60.269531-63.199219c-38.398437-39.601562-90.132812-61.46875-145.332031-61.46875-111.734375 0-202.667969 90.933594-202.667969 202.667969s90.933594 202.667969 202.667969 202.667969 202.667969-90.933594 202.667969-202.667969h21.332031c0 123.464844-100.535156 224-224 224zm0 0" data-original="#000000" class="active-path" data-old_color="#ffffff" fill="#ffffff"/></g> </svg>
