<svg height='100px' width='100px'  fill="#1A1A1A" xmlns="http://www.w3.org/2000/svg" xmlns:xlink="http://www.w3.org/1999/xlink" xml:space="preserve" version="1.1" style="shape-rendering:geometricPrecision;text-rendering:geometricPrecision;image-rendering:optimizeQuality;" viewBox="0 0 333 333" x="0px" y="0px" fill-rule="evenodd" clip-rule="evenodd"><defs><style type="text/css">
   
    .fil0 {fill:#1A1A1A}
   
  </style></defs><g><path class="fil0" d="M186 209c6,0 10,5 11,10 0,6 -4,10 -10,10 -5,1 -10,-4 -10,-9 0,-6 4,-10 9,-11zm21 -10l-5 33 12 3 12 -7 -19 -29zm-8 32l5 -35 -44 7 19 31 0 -1 20 -2zm-23 4l-18 -29 -7 33 13 5 12 -9zm33 -41l20 32 0 0c3,-2 6,2 4,4l-15 13 -16 0 3 16 -18 10 19 -6 20 14 7 28c1,5 -6,8 -7,2l-6 -20 -13 -10 4 12 6 22c1,6 -7,8 -8,3l-7 -23 -18 -20 -4 -25 -16 8 -19 -10c-4,-2 -1,-7 2,-6l1 0 7 -35 -1 -2 -105 -47c-19,-17 -14,-50 4,-66 4,-31 31,-41 45,-38 2,-18 40,-33 57,-20 7,-17 46,-19 57,-1 24,-14 53,1 57,22 20,3 31,37 26,53l-87 87 1 3zm-6 -7l0 -108c-8,-9 -37,-11 -44,3l22 109 22 -4zm-26 5l-21 -108c-20,-5 -35,0 -44,17l45 94 20 -3zm-27 4l-74 -69c-5,3 -20,10 -26,24l100 45zm3 -2l-43 -91c-18,2 -28,8 -31,22l74 69zm54 -10l45 -96c-6,-17 -31,-20 -45,-7l0 103zm4 -1l82 -81c-6,-10 -24,-22 -39,-10l-43 91z"></path></g></svg>