<?xml version="1.0" encoding="utf-8"?>
<svg id="master-artboard" viewBox="0 0 1400 980" version="1.1" xmlns="http://www.w3.org/2000/svg" x="0px" y="0px" enable-background="new 0 0 1400 980" width="1400px" height="980px"><rect id="ee-background" x="0" y="0" width="1400" height="980" style="fill: white; fill-opacity: 0; pointer-events: none;"/>
<path fill-rule="evenodd" clip-rule="evenodd" fill="#5B5B5F" d="M57.8,95.6c6.8,0.4,13.7,0.8,20.5,1.2c2.5,0.1,5,0.4,7.4,0.1&#10;&#9;&#9;&#9;c11.5-1.5,23.1-1.2,34.6-0.2c13.1,1.1,26.1,1.6,39.2,1.1c13.7-0.6,27.4-0.4,41.1-0.4c7.8,0,15.6,0.2,23.4,0.4&#10;&#9;&#9;&#9;c24.9,0.7,49.9,1,74.8,2.4c20.3,1.1,40.6,1.1,60.8,1.1c7.5,0,15,0.2,22.4,0.1c17.5-0.3,34.9-0.8,52.4-1&#10;&#9;&#9;&#9;c23.1-0.3,46.2-0.5,69.3-0.6c15.9-0.1,31.8,0,47.7,0c27.8,0,55.6,0,83.4,0.2c10.9,0.1,21.9,1.4,32.7,0.6&#10;&#9;&#9;&#9;c12.2-0.8,24.3-0.2,36.5-0.3c6.5-0.1,13.1,0.2,19.6,0.6c12.8,0.8,25.5,0.1,38.3-0.2c19-0.3,38,0.1,56.9,0.5&#10;&#9;&#9;&#9;c26.8,0.5,53.7,0.2,80.5-1.1c10.3-0.5,20.6-0.1,30.9-0.8c16.2-1.1,32.3-0.1,48.5,0.2c18.7,0.3,37.4,0.4,56.1,0.7&#10;&#9;&#9;&#9;c10.9,0.2,21.8,0.8,32.7,1c13.1,0.3,26.2,0.6,39.3,0.5c15.9-0.2,31.8-1.1,47.7-1.3c10-0.1,19.9,0.5,29.9,0.7&#10;&#9;&#9;&#9;c9.4,0.2,18.7,0.6,28.1,0.7c17.5,0.2,35,0.3,52.4,0.4c5.3,0,10.6-0.4,15.9-0.5c13.1-0.4,26.2-0.5,39.2,2.3c4.5,1,9.3,1.1,14,0.8&#10;&#9;&#9;&#9;c6.3-0.4,12.4,0.2,18.6,0.9c3.4,0.4,6.8,0.5,10.2,0.3c3.6-0.2,5.9,1.4,7.7,4.3c1,1.7,0.2,4.1-1.6,4.7c-3.6,1.3-7.3,1.9-11,0.9&#10;&#9;&#9;&#9;c-9.8-2.8-19.7-2.7-29.7-2.3c-2.8,0.1-5.7,0-8.4-0.7c-10.8-2.7-21.6-2-32.6-1.9c-19.7,0.3-39.3,0.3-59,0.2&#10;&#9;&#9;&#9;c-12.8,0-25.6,0-38.4-0.7c-11.2-0.7-22.4-0.7-33.7-0.4c-25,0.5-49.9,0.9-74.9,1.1c-9.7,0-19.3-1-29-1.2c-21.2-0.4-42.5-0.6-63.7-1&#10;&#9;&#9;&#9;c-11.8-0.2-23.7-1-35.5-0.9c-20.3,0.1-40.5,0.8-60.8,1.1c-25.3,0.4-50.5,2-75.8,0.4c-15.8-1-31.8-0.2-47.7-0.2&#10;&#9;&#9;&#9;c-26.2-0.1-52.4-0.2-78.7-0.3c-31.2-0.1-62.4-0.4-93.6-0.4c-29.7,0-59.3,0.1-89,0.3c-24.6,0.1-49.3,0.2-73.9,0.5&#10;&#9;&#9;&#9;c-8.4,0.1-16.8,0.7-25.2,0.8c-10.6,0.1-21.2,0-31.8,0c-7.8,0-15.6,0.3-23.4,0.3c-13.7,0-27.5-0.1-41.2-0.4&#10;&#9;&#9;&#9;c-10.6-0.2-21.2-0.5-31.8-0.8c-22.2-0.6-44.3-1.4-66.5-1.8c-21.2-0.4-42.4-0.9-63.6,0.8c-7.7,0.6-15.5-0.3-23.3-0.7&#10;&#9;&#9;&#9;c-9-0.4-18.1-1.2-27.1-1.4c-6.2-0.1-12.4,0.8-18.6,0.9c-9.7,0.1-19.3-0.2-29-0.1c-4.4,0-8.7,0.6-13.1,0.7c-3.7,0.1-5.8-1.6-6-4.5&#10;&#9;&#9;&#9;c-0.2-4.1,1.9-6.9,5.8-7c6.2-0.2,12.5,0,18.7,0C57.8,96,57.8,95.8,57.8,95.6z" transform="matrix(1, 0, 0, 1, 0, 0)" style="fill: rgb(255, 255, 255); stroke: rgb(18, 18, 18); stroke-width: 2; stroke-opacity: 1;"/>

</svg>