<svg id="cube-bg" xmlns="http://www.w3.org/2000/svg" xmlns:xlink="http://www.w3.org/1999/xlink" viewBox="0 0 999.09 657.26"><defs><clipPath id="clip-path" transform="translate(-381.68 116.23)"><rect id="canvas-bg" x="530.47" width="750" height="500" fill="none"/></clipPath></defs><title>bg1</title><g id="cube-all-section"><rect x="148.79" y="116.23" width="750" height="500" fill="#e9e6e1"/><rect x="148.79" y="116.23" width="750" height="500" fill="#e9e6e1"/><g id="cube-shapes-section"><g clip-path="url(#clip-path)"><g id="cube-shapes-all"><g id="cube-shape-right"><polygon points="999.09 456.83 999.09 514.13 949.5 485.49 949.5 485.46 999.09 456.83" fill="#ffa73b"/><polygon points="949.5 485.55 949.5 542.73 949.45 542.75 899.94 514.15 949.5 485.55" fill="#0c2e3a"/><polygon points="949.5 485.46 949.5 485.55 899.94 514.15 899.9 514.13 899.9 456.83 949.5 485.46" fill="#78001b"/><polygon points="949.5 370.93 949.5 428.23 899.9 399.59 899.9 399.56 949.5 370.93" fill="#ffa73b"/><polygon points="949.5 428.23 949.5 428.28 899.97 456.87 899.9 456.83 899.9 399.59 949.5 428.23" fill="#f5340b"/><polygon points="949.5 428.28 949.5 485.46 899.97 456.87 949.5 428.28" fill="#f5340b"/><polygon points="999.04 456.85 949.5 485.46 949.5 428.28 949.53 428.26 999.04 456.85" fill="#ff823b"/><polygon points="949.5 542.73 949.5 600.03 899.9 571.38 899.9 571.36 949.5 542.73" fill="#018790"/><polygon points="949.5 600.03 949.5 600.07 899.97 628.66 899.9 628.62 899.9 571.38 949.5 600.03" fill="#018790"/><polygon points="949.5 600.07 949.5 657.26 899.97 628.66 949.5 600.07" fill="#e3651d"/><polygon points="999.09 571.36 999.09 571.45 949.53 600.05 949.5 600.03 949.5 542.73 999.09 571.36" fill="#ffa73b"/><polygon points="999.09 456.83 999.09 514.13 949.5 485.49 949.5 485.46 999.09 456.83" fill="#ffa73b"/><polygon points="949.45 542.75 899.9 571.36 899.9 514.17 899.94 514.15 949.45 542.75" fill="#00a6a6"/><polygon points="949.5 485.55 949.5 542.73 949.45 542.75 899.94 514.15 949.5 485.55" fill="#0c2e3a"/><polygon points="949.5 485.46 949.5 485.55 899.94 514.15 899.9 514.13 899.9 456.83 949.5 485.46" fill="#ffa73b"/><polygon points="899.9 456.83 899.9 514.13 850.31 485.49 850.31 485.46 899.9 456.83" fill="#78001b"/><polygon points="899.9 514.13 899.9 514.17 850.37 542.76 850.31 542.73 850.31 485.49 899.9 514.13" fill="#78001b"/><polygon points="949.5 485.46 949.5 485.55 899.94 514.15 899.9 514.13 899.9 456.83 949.5 485.46" fill="#78001b"/><polygon points="850.31 485.55 850.31 542.73 850.26 542.75 800.75 514.15 850.31 485.55" fill="#78001b"/><polygon points="850.31 485.46 850.31 485.55 800.75 514.15 800.71 514.13 800.71 456.83 850.31 485.46" fill="#f5340b"/><polygon points="850.3 370.93 850.3 428.23 800.71 399.59 800.71 399.56 850.3 370.93" fill="#1dcdc3"/><polygon points="850.3 428.23 850.3 428.28 800.77 456.87 800.71 456.83 800.71 399.59 850.3 428.23" fill="#0c2e3a"/><polygon points="850.3 428.28 850.3 485.46 800.77 456.87 850.3 428.28" fill="#0c2e3a"/><polygon points="899.85 456.85 850.3 485.46 850.3 428.28 850.34 428.26 899.85 456.85" fill="#018790"/><polygon points="899.9 399.65 899.9 456.83 899.85 456.85 850.34 428.26 899.9 399.65" fill="#018790"/><polygon points="882.32 281.95 882.32 298.55 882.3 298.56 867.93 290.25 882.32 281.95" fill="#018790"/><polygon points="899.9 342.24 899.9 342.32 850.34 370.93 850.3 370.91 850.3 313.6 899.9 342.24" fill="#1dcdc3"/><polygon points="850.3 542.73 850.3 600.03 800.71 571.38 800.71 571.36 850.3 542.73" fill="#78001b"/><polygon points="850.3 600.03 850.3 600.07 800.77 628.66 800.71 628.62 800.71 571.38 850.3 600.03" fill="#78001b"/><polygon points="850.3 600.07 850.3 657.26 800.77 628.66 850.3 600.07" fill="#00a6a6"/><polygon points="899.85 628.65 850.3 657.26 850.3 600.07 850.34 600.05 899.85 628.65" fill="#00a6a6"/><polygon points="899.9 571.45 899.9 628.62 899.85 628.65 850.34 600.05 899.9 571.45" fill="#0c2e3a"/><polygon points="899.9 571.36 899.9 571.45 850.34 600.05 850.3 600.03 850.3 542.73 899.9 571.36" fill="#0c2e3a"/><polygon points="899.9 456.83 899.9 514.13 850.31 485.49 850.31 485.46 899.9 456.83" fill="#f5340b"/><polygon points="899.9 514.13 899.9 514.17 850.37 542.76 850.31 542.73 850.31 485.49 899.9 514.13" fill="#f5340b"/><polygon points="899.9 514.17 899.9 571.36 850.37 542.76 899.9 514.17" fill="#00a6a6"/><polygon points="949.45 542.75 899.9 571.36 899.9 514.17 899.94 514.15 949.45 542.75" fill="#ff823b"/><polygon points="949.5 485.46 949.5 485.55 899.94 514.15 899.9 514.13 899.9 456.83 949.5 485.46" fill="#ffa73b"/><polygon points="850.26 542.75 800.71 571.36 800.71 514.17 800.75 514.15 850.26 542.75" fill="#f5340b"/><polygon points="850.31 485.55 850.31 542.73 850.26 542.75 800.75 514.15 850.31 485.55" fill="#f5340b"/><polygon points="850.31 485.46 850.31 485.55 800.75 514.15 800.71 514.13 800.71 456.83 850.31 485.46" fill="none"/><polygon points="800.71 456.83 800.71 514.13 751.12 485.49 751.12 485.46 800.71 456.83" fill="#f5340b"/><polygon points="800.71 514.13 800.71 514.17 751.18 542.76 751.12 542.73 751.12 485.49 800.71 514.13" fill="#e3651d"/><polygon points="850.31 485.46 850.31 485.55 800.75 514.15 800.71 514.13 800.71 456.83 850.31 485.46" fill="#ffa73b"/><polygon points="751.12 370.93 751.12 428.23 701.52 399.59 701.52 399.56 751.12 370.93" fill="#ffd497"/><polygon points="800.66 456.85 751.12 485.46 751.12 428.28 751.15 428.26 800.66 456.85" fill="#ff823b"/><polygon points="717.32 456.86 694.18 470.22 694.18 443.51 694.2 443.5 717.32 456.86" fill="#ff823b"/><polygon points="716.9 375.35 701.1 384.48 701.1 366.23 701.11 366.23 716.9 375.35" fill="#ffd497"/><polygon points="800.71 399.65 800.71 456.83 800.66 456.85 751.15 428.26 800.71 399.65" fill="#ff823b"/><polygon points="800.71 399.56 800.71 399.65 751.15 428.26 751.12 428.23 751.12 370.93 800.71 399.56" fill="#ffa73b"/><polygon points="751.12 542.73 751.12 600.03 701.52 571.38 701.52 571.36 751.12 542.73" fill="#ff7c4e"/><polygon points="800.66 628.65 751.12 657.26 751.12 600.07 751.15 600.05 800.66 628.65" fill="#f54132"/><polygon points="701.52 628.65 651.97 657.26 651.97 600.07 652.01 600.05 701.52 628.65" fill="#f54132"/><polygon points="800.71 571.45 800.71 628.62 800.66 628.65 751.15 600.05 800.71 571.45" fill="#f54132"/><polygon points="800.71 571.36 800.71 571.45 751.15 600.05 751.12 600.03 751.12 542.73 800.71 571.36" fill="#f54132"/><polygon points="800.71 456.83 800.71 514.13 751.12 485.49 751.12 485.46 800.71 456.83" fill="#ffa73b"/><polygon points="800.71 514.13 800.71 514.17 751.18 542.76 751.12 542.73 751.12 485.49 800.71 514.13" fill="#ffa73b"/><polygon points="800.71 514.17 800.71 571.36 751.18 542.76 800.71 514.17" fill="#e3651d"/><polygon points="850.26 542.75 800.71 571.36 800.71 514.17 800.75 514.15 850.26 542.75" fill="#78001b"/><polygon points="850.31 485.46 850.31 485.55 800.75 514.15 800.71 514.13 800.71 456.83 850.31 485.46" fill="#ffa73b"/></g><g id="cube-shape-left"><polygon points="0 200.43 0 143.13 49.59 171.77 49.59 171.79 0 200.43" fill="#ffa73b"/><polygon points="49.59 171.71 49.59 114.53 49.65 114.5 99.16 143.1 49.59 171.71" fill="#0c2e3a"/><polygon points="49.59 171.79 49.59 171.71 99.16 143.1 99.19 143.13 99.19 200.43 49.59 171.79" fill="#78001b"/><polygon points="49.6 286.32 49.6 229.02 99.19 257.67 99.19 257.69 49.6 286.32" fill="#ffa73b"/><polygon points="49.6 229.02 49.6 228.98 99.13 200.39 99.19 200.43 99.19 257.67 49.6 229.02" fill="#f5340b"/><polygon points="49.6 228.98 49.6 171.79 99.13 200.39 49.6 228.98" fill="#f5340b"/><polygon points="0.05 200.4 49.6 171.79 49.6 228.98 49.56 229 0.05 200.4" fill="#ff823b"/><polygon points="49.6 114.53 49.6 57.23 99.19 85.87 99.19 85.9 49.6 114.53" fill="#018790"/><polygon points="49.6 57.23 49.6 57.19 99.13 28.59 99.19 28.63 99.19 85.87 49.6 57.23" fill="#018790"/><polygon points="49.6 57.19 49.6 0 99.13 28.59 49.6 57.19" fill="#e3651d"/><polygon points="0 85.9 0 85.81 49.56 57.2 49.6 57.23 49.6 114.53 0 85.9" fill="#ffa73b"/><polygon points="0 200.43 0 143.13 49.59 171.77 49.59 171.79 0 200.43" fill="#ffa73b"/><polygon points="49.65 114.5 99.19 85.9 99.19 143.08 99.16 143.1 49.65 114.5" fill="#00a6a6"/><polygon points="49.59 171.71 49.59 114.53 49.65 114.5 99.16 143.1 49.59 171.71" fill="#0c2e3a"/><polygon points="49.59 171.79 49.59 171.71 99.16 143.1 99.19 143.13 99.19 200.43 49.59 171.79" fill="#ffa73b"/><polygon points="99.19 200.43 99.19 143.13 148.79 171.77 148.79 171.79 99.19 200.43" fill="#78001b"/><polygon points="99.19 143.13 99.19 143.08 148.72 114.49 148.79 114.53 148.79 171.77 99.19 143.13" fill="#78001b"/><polygon points="49.59 171.79 49.59 171.71 99.16 143.1 99.19 143.13 99.19 200.43 49.59 171.79" fill="#78001b"/><polygon points="148.79 171.71 148.79 114.53 148.84 114.5 198.35 143.1 148.79 171.71" fill="#78001b"/><polygon points="148.79 171.79 148.79 171.71 198.35 143.1 198.38 143.13 198.38 200.43 148.79 171.79" fill="#f5340b"/><polygon points="148.79 286.32 148.79 229.02 198.38 257.67 198.38 257.69 148.79 286.32" fill="#1dcdc3"/><polygon points="148.79 229.02 148.79 228.98 198.32 200.39 198.38 200.43 198.38 257.67 148.79 229.02" fill="#0c2e3a"/><polygon points="165.24 291.03 165.24 291.01 181.91 281.39 181.93 281.4 181.93 300.67 165.24 291.03" fill="#0c2e3a"/><polygon points="148.79 228.98 148.79 171.79 198.32 200.39 148.79 228.98" fill="#0c2e3a"/><polygon points="99.24 200.4 148.79 171.79 148.79 228.98 148.75 229 99.24 200.4" fill="#018790"/><polygon points="99.19 257.61 99.19 200.43 99.24 200.4 148.75 229 99.19 257.61" fill="#018790"/><polygon points="99.19 315.02 99.19 314.93 148.75 286.32 148.79 286.35 148.79 343.65 99.19 315.02" fill="#1dcdc3"/><polygon points="148.79 114.53 148.79 57.23 198.38 85.87 198.38 85.9 148.79 114.53" fill="#78001b"/><polygon points="148.79 57.23 148.79 57.19 198.32 28.59 198.38 28.63 198.38 85.87 148.79 57.23" fill="#78001b"/><polygon points="148.79 57.19 148.79 0 198.32 28.59 148.79 57.19" fill="#00a6a6"/><polygon points="99.24 28.61 148.79 0 148.79 57.19 148.75 57.2 99.24 28.61" fill="#00a6a6"/><polygon points="99.19 85.81 99.19 28.63 99.24 28.61 148.75 57.2 99.19 85.81" fill="#0c2e3a"/><polygon points="99.19 85.9 99.19 85.81 148.75 57.2 148.79 57.23 148.79 114.53 99.19 85.9" fill="#0c2e3a"/><polygon points="99.19 200.43 99.19 143.13 148.79 171.77 148.79 171.79 99.19 200.43" fill="#f5340b"/><polygon points="99.19 143.13 99.19 143.08 148.72 114.49 148.79 114.53 148.79 171.77 99.19 143.13" fill="#f5340b"/><polygon points="99.19 143.08 99.19 85.9 148.72 114.49 99.19 143.08" fill="#00a6a6"/><polygon points="49.65 114.5 99.19 85.9 99.19 143.08 99.16 143.1 49.65 114.5" fill="#ff823b"/><polygon points="49.59 171.79 49.59 171.71 99.16 143.1 99.19 143.13 99.19 200.43 49.59 171.79" fill="#ffa73b"/><polygon points="148.84 114.5 198.38 85.9 198.38 143.08 198.35 143.1 148.84 114.5" fill="#f5340b"/><polygon points="148.79 171.71 148.79 114.53 148.84 114.5 198.35 143.1 148.79 171.71" fill="#f5340b"/><polygon points="148.79 171.79 148.79 171.71 198.35 143.1 198.38 143.13 198.38 200.43 148.79 171.79" fill="none"/><polygon points="198.38 200.43 198.38 143.13 247.98 171.77 247.98 171.79 198.38 200.43" fill="#f5340b"/><polygon points="198.38 143.13 198.38 143.08 247.91 114.49 247.98 114.53 247.98 171.77 198.38 143.13" fill="#e3651d"/><polygon points="148.79 171.79 148.79 171.71 198.35 143.1 198.38 143.13 198.38 200.43 148.79 171.79" fill="#ffa73b"/><polygon points="247.98 171.71 247.98 114.53 248.03 114.5 297.54 143.1 247.98 171.71" fill="#ffa73b"/><polygon points="312.19 154.72 312.19 131.5 312.21 131.49 332.32 143.1 312.19 154.72" fill="#ffd497"/><polygon points="247.98 286.32 247.98 229.02 297.57 257.67 297.57 257.69 247.98 286.32" fill="#ffd497"/><polygon points="198.43 200.4 247.98 171.79 247.98 228.98 247.94 229 198.43 200.4" fill="#ff823b"/><polygon points="198.38 257.61 198.38 200.43 198.43 200.4 247.94 229 198.38 257.61" fill="#ff823b"/><polygon points="198.38 257.69 198.38 257.61 247.94 229 247.98 229.02 247.98 286.32 198.38 257.69" fill="#ffa73b"/><polygon points="247.98 114.53 247.98 57.23 297.57 85.87 297.57 85.9 247.98 114.53" fill="#ff7c4e"/><polygon points="198.43 28.61 247.98 0 247.98 57.19 247.94 57.2 198.43 28.61" fill="#f54132"/><polygon points="198.38 85.81 198.38 28.63 198.43 28.61 247.94 57.2 198.38 85.81" fill="#f54132"/><polygon points="198.38 85.9 198.38 85.81 247.94 57.2 247.98 57.23 247.98 114.53 198.38 85.9" fill="#f54132"/><polygon points="198.38 200.43 198.38 143.13 247.98 171.77 247.98 171.79 198.38 200.43" fill="#ffa73b"/><polygon points="198.38 143.13 198.38 143.08 247.91 114.49 247.98 114.53 247.98 171.77 198.38 143.13" fill="#ffa73b"/><polygon points="198.38 143.08 198.38 85.9 247.91 114.49 198.38 143.08" fill="#e3651d"/><polygon points="148.84 114.5 198.38 85.9 198.38 143.08 198.35 143.1 148.84 114.5" fill="#78001b"/><polygon points="148.79 171.79 148.79 171.71 198.35 143.1 198.38 143.13 198.38 200.43 148.79 171.79" fill="#ffa73b"/></g></g></g></g></g></svg>