<svg id="cube-bg" xmlns="http://www.w3.org/2000/svg" xmlns:xlink="http://www.w3.org/1999/xlink" viewBox="0 0 1598.55 657.26"><defs><clipPath id="clip-path" transform="translate(-67.41 116.23)"><rect id="canvas-bg" x="305.47" width="1200" height="500" style="fill:none"/></clipPath></defs><title>bg3</title><g id="cube-all-section"><rect x="305.47" width="1200" height="500" transform="translate(1743.52 616.23) rotate(180)" style="fill:#e9e6e1"/><g id="cube-shapes-section"><g style="clip-path:url(#clip-path)"><g id="cube-shapes-all"><g id="cube-shape-right"><polygon points="1598.55 456.83 1598.55 514.13 1519.2 485.49 1519.2 485.46 1598.55 456.83" style="fill:#ffa73b"/><polygon points="1519.2 485.55 1519.2 542.73 1519.12 542.75 1439.9 514.15 1519.2 485.55" style="fill:#0c2e3a"/><polygon points="1519.2 485.46 1519.2 485.55 1439.9 514.15 1439.84 514.13 1439.84 456.83 1519.2 485.46" style="fill:#78001b"/><polygon points="1519.19 370.93 1519.19 428.23 1439.85 399.59 1439.85 399.56 1519.19 370.93" style="fill:#ffa73b"/><polygon points="1519.19 428.23 1519.19 428.28 1439.94 456.87 1439.85 456.83 1439.85 399.59 1519.19 428.23" style="fill:#f5340b"/><polygon points="1519.19 428.28 1519.19 485.46 1439.94 456.87 1519.19 428.28" style="fill:#f5340b"/><polygon points="1598.47 456.85 1519.19 485.46 1519.19 428.28 1519.25 428.26 1598.47 456.85" style="fill:#ff823b"/><polygon points="1519.19 542.73 1519.19 600.03 1439.85 571.38 1439.85 571.36 1519.19 542.73" style="fill:#018790"/><polygon points="1519.19 600.03 1519.19 600.07 1439.94 628.66 1439.85 628.62 1439.85 571.38 1519.19 600.03" style="fill:#018790"/><polygon points="1519.19 600.07 1519.19 657.26 1439.94 628.66 1519.19 600.07" style="fill:#e3651d"/><polygon points="1598.55 571.36 1598.55 571.45 1519.25 600.05 1519.19 600.03 1519.19 542.73 1598.55 571.36" style="fill:#ffa73b"/><polygon points="1598.55 456.83 1598.55 514.13 1519.2 485.49 1519.2 485.46 1598.55 456.83" style="fill:#ffa73b"/><polygon points="1519.12 542.75 1439.84 571.36 1439.84 514.17 1439.9 514.15 1519.12 542.75" style="fill:#00a6a6"/><polygon points="1519.2 485.55 1519.2 542.73 1519.12 542.75 1439.9 514.15 1519.2 485.55" style="fill:#0c2e3a"/><polygon points="1519.2 485.46 1519.2 485.55 1439.9 514.15 1439.84 514.13 1439.84 456.83 1519.2 485.46" style="fill:#ffa73b"/><polygon points="1439.84 456.83 1439.84 514.13 1360.49 485.49 1360.49 485.46 1439.84 456.83" style="fill:#78001b"/><polygon points="1439.84 514.13 1439.84 514.17 1360.59 542.76 1360.49 542.73 1360.49 485.49 1439.84 514.13" style="fill:#78001b"/><polygon points="1519.2 485.46 1519.2 485.55 1439.9 514.15 1439.84 514.13 1439.84 456.83 1519.2 485.46" style="fill:#78001b"/><polygon points="1360.49 485.55 1360.49 542.73 1360.41 542.75 1281.2 514.15 1360.49 485.55" style="fill:#78001b"/><polygon points="1360.49 485.46 1360.49 485.55 1281.2 514.15 1281.14 514.13 1281.14 456.83 1360.49 485.46" style="fill:#f5340b"/><polygon points="1360.49 370.93 1360.49 428.23 1281.14 399.59 1281.14 399.56 1360.49 370.93" style="fill:#1dcdc3"/><polygon points="1360.49 428.23 1360.49 428.28 1281.24 456.87 1281.14 456.83 1281.14 399.59 1360.49 428.23" style="fill:#0c2e3a"/><polygon points="1360.49 428.28 1360.49 485.46 1281.24 456.87 1360.49 428.28" style="fill:#0c2e3a"/><polygon points="1439.77 456.85 1360.49 485.46 1360.49 428.28 1360.55 428.26 1439.77 456.85" style="fill:#018790"/><polygon points="1439.85 399.65 1439.85 456.83 1439.77 456.85 1360.55 428.26 1439.85 399.65" style="fill:#018790"/><polygon points="1411.71 281.95 1411.71 298.55 1411.69 298.56 1388.68 290.25 1411.71 281.95" style="fill:#018790"/><polygon points="1439.85 342.24 1439.85 342.32 1360.55 370.93 1360.49 370.91 1360.49 313.6 1439.85 342.24" style="fill:#1dcdc3"/><polygon points="1360.49 542.73 1360.49 600.03 1281.14 571.38 1281.14 571.36 1360.49 542.73" style="fill:#78001b"/><polygon points="1360.49 600.03 1360.49 600.07 1281.24 628.66 1281.14 628.62 1281.14 571.38 1360.49 600.03" style="fill:#78001b"/><polygon points="1360.49 600.07 1360.49 657.26 1281.24 628.66 1360.49 600.07" style="fill:#00a6a6"/><polygon points="1439.77 628.65 1360.49 657.26 1360.49 600.07 1360.55 600.05 1439.77 628.65" style="fill:#00a6a6"/><polygon points="1439.85 571.45 1439.85 628.62 1439.77 628.65 1360.55 600.05 1439.85 571.45" style="fill:#0c2e3a"/><polygon points="1439.85 571.36 1439.85 571.45 1360.55 600.05 1360.49 600.03 1360.49 542.73 1439.85 571.36" style="fill:#0c2e3a"/><polygon points="1439.84 456.83 1439.84 514.13 1360.49 485.49 1360.49 485.46 1439.84 456.83" style="fill:#f5340b"/><polygon points="1439.84 514.13 1439.84 514.17 1360.59 542.76 1360.49 542.73 1360.49 485.49 1439.84 514.13" style="fill:#f5340b"/><polygon points="1439.84 514.17 1439.84 571.36 1360.59 542.76 1439.84 514.17" style="fill:#00a6a6"/><polygon points="1519.12 542.75 1439.84 571.36 1439.84 514.17 1439.9 514.15 1519.12 542.75" style="fill:#ff823b"/><polygon points="1519.2 485.46 1519.2 485.55 1439.9 514.15 1439.84 514.13 1439.84 456.83 1519.2 485.46" style="fill:#ffa73b"/><polygon points="1360.41 542.75 1281.14 571.36 1281.14 514.17 1281.2 514.15 1360.41 542.75" style="fill:#f5340b"/><polygon points="1360.49 485.55 1360.49 542.73 1360.41 542.75 1281.2 514.15 1360.49 485.55" style="fill:#f5340b"/><polygon points="1360.49 485.46 1360.49 485.55 1281.2 514.15 1281.14 514.13 1281.14 456.83 1360.49 485.46" style="fill:none"/><polygon points="1281.14 456.83 1281.14 514.13 1201.79 485.49 1201.79 485.46 1281.14 456.83" style="fill:#f5340b"/><polygon points="1281.14 514.13 1281.14 514.17 1201.89 542.76 1201.79 542.73 1201.79 485.49 1281.14 514.13" style="fill:#e3651d"/><polygon points="1360.49 485.46 1360.49 485.55 1281.2 514.15 1281.14 514.13 1281.14 456.83 1360.49 485.46" style="fill:#ffa73b"/><polygon points="1201.78 370.93 1201.78 428.23 1122.44 399.59 1122.44 399.56 1201.78 370.93" style="fill:#ffd497"/><polygon points="1281.06 456.85 1201.78 485.46 1201.78 428.28 1201.84 428.26 1281.06 456.85" style="fill:#ff823b"/><polygon points="1147.71 456.86 1110.68 470.22 1110.68 443.51 1110.71 443.5 1147.71 456.86" style="fill:#ff823b"/><polygon points="1147.04 375.35 1121.75 384.48 1121.75 366.23 1121.77 366.23 1147.04 375.35" style="fill:#ffd497"/><polygon points="1281.14 399.65 1281.14 456.83 1281.06 456.85 1201.84 428.26 1281.14 399.65" style="fill:#ff823b"/><polygon points="1281.14 399.56 1281.14 399.65 1201.84 428.26 1201.78 428.23 1201.78 370.93 1281.14 399.56" style="fill:#ffa73b"/><polygon points="1201.78 542.73 1201.78 600.03 1122.44 571.38 1122.44 571.36 1201.78 542.73" style="fill:#ff7c4e"/><polygon points="1281.06 628.65 1201.78 657.26 1201.78 600.07 1201.84 600.05 1281.06 628.65" style="fill:#f54132"/><polygon points="1122.44 628.65 1043.16 657.26 1043.16 600.07 1043.22 600.05 1122.44 628.65" style="fill:#f54132"/><polygon points="1281.14 571.45 1281.14 628.62 1281.06 628.65 1201.84 600.05 1281.14 571.45" style="fill:#f54132"/><polygon points="1281.14 571.36 1281.14 571.45 1201.84 600.05 1201.78 600.03 1201.78 542.73 1281.14 571.36" style="fill:#f54132"/><polygon points="1281.14 456.83 1281.14 514.13 1201.79 485.49 1201.79 485.46 1281.14 456.83" style="fill:#ffa73b"/><polygon points="1281.14 514.13 1281.14 514.17 1201.89 542.76 1201.79 542.73 1201.79 485.49 1281.14 514.13" style="fill:#ffa73b"/><polygon points="1281.14 514.17 1281.14 571.36 1201.89 542.76 1281.14 514.17" style="fill:#e3651d"/><polygon points="1360.41 542.75 1281.14 571.36 1281.14 514.17 1281.2 514.15 1360.41 542.75" style="fill:#78001b"/><polygon points="1360.49 485.46 1360.49 485.55 1281.2 514.15 1281.14 514.13 1281.14 456.83 1360.49 485.46" style="fill:#ffa73b"/></g><g id="cube-shape-left"><polygon points="0.01 200.43 0.01 143.13 79.35 171.77 79.35 171.79 0.01 200.43" style="fill:#ffa73b"/><polygon points="79.35 171.71 79.35 114.53 79.43 114.5 158.65 143.1 79.35 171.71" style="fill:#0c2e3a"/><polygon points="79.35 171.79 79.35 171.71 158.65 143.1 158.71 143.13 158.71 200.43 79.35 171.79" style="fill:#78001b"/><polygon points="79.36 286.32 79.36 229.02 158.71 257.67 158.71 257.69 79.36 286.32" style="fill:#ffa73b"/><polygon points="79.36 229.02 79.36 228.98 158.61 200.39 158.71 200.43 158.71 257.67 79.36 229.02" style="fill:#f5340b"/><polygon points="79.36 228.98 79.36 171.79 158.61 200.39 79.36 228.98" style="fill:#f5340b"/><polygon points="0.08 200.4 79.36 171.79 79.36 228.98 79.3 229 0.08 200.4" style="fill:#ff823b"/><polygon points="79.36 114.53 79.36 57.23 158.71 85.87 158.71 85.9 79.36 114.53" style="fill:#018790"/><polygon points="79.36 57.23 79.36 57.19 158.61 28.59 158.71 28.63 158.71 85.87 79.36 57.23" style="fill:#018790"/><polygon points="79.36 57.19 79.36 0 158.61 28.59 79.36 57.19" style="fill:#e3651d"/><polygon points="0 85.9 0 85.81 79.3 57.2 79.36 57.23 79.36 114.53 0 85.9" style="fill:#ffa73b"/><polygon points="0.01 200.43 0.01 143.13 79.35 171.77 79.35 171.79 0.01 200.43" style="fill:#ffa73b"/><polygon points="79.43 114.5 158.71 85.9 158.71 143.08 158.65 143.1 79.43 114.5" style="fill:#00a6a6"/><polygon points="79.35 171.71 79.35 114.53 79.43 114.5 158.65 143.1 79.35 171.71" style="fill:#0c2e3a"/><polygon points="79.35 171.79 79.35 171.71 158.65 143.1 158.71 143.13 158.71 200.43 79.35 171.79" style="fill:#ffa73b"/><polygon points="158.71 200.43 158.71 143.13 238.06 171.77 238.06 171.79 158.71 200.43" style="fill:#78001b"/><polygon points="158.71 143.13 158.71 143.08 237.96 114.49 238.06 114.53 238.06 171.77 158.71 143.13" style="fill:#78001b"/><polygon points="79.35 171.79 79.35 171.71 158.65 143.1 158.71 143.13 158.71 200.43 79.35 171.79" style="fill:#78001b"/><polygon points="238.06 171.71 238.06 114.53 238.14 114.5 317.36 143.1 238.06 171.71" style="fill:#78001b"/><polygon points="238.06 171.79 238.06 171.71 317.36 143.1 317.41 143.13 317.41 200.43 238.06 171.79" style="fill:#f5340b"/><polygon points="238.06 286.32 238.06 229.02 317.41 257.67 317.41 257.69 238.06 286.32" style="fill:#1dcdc3"/><polygon points="238.06 229.02 238.06 228.98 317.31 200.39 317.41 200.43 317.41 257.67 238.06 229.02" style="fill:#0c2e3a"/><polygon points="264.38 291.03 264.38 291.01 291.06 281.39 291.09 281.4 291.09 300.67 264.38 291.03" style="fill:#0c2e3a"/><polygon points="238.06 228.98 238.06 171.79 317.31 200.39 238.06 228.98" style="fill:#0c2e3a"/><polygon points="158.78 200.4 238.06 171.79 238.06 228.98 238 229 158.78 200.4" style="fill:#018790"/><polygon points="158.71 257.61 158.71 200.43 158.78 200.4 238 229 158.71 257.61" style="fill:#018790"/><polygon points="158.71 315.02 158.71 314.93 238 286.32 238.06 286.35 238.06 343.65 158.71 315.02" style="fill:#1dcdc3"/><polygon points="238.06 114.53 238.06 57.23 317.41 85.87 317.41 85.9 238.06 114.53" style="fill:#78001b"/><polygon points="238.06 57.23 238.06 57.19 317.31 28.59 317.41 28.63 317.41 85.87 238.06 57.23" style="fill:#78001b"/><polygon points="238.06 57.19 238.06 0 317.31 28.59 238.06 57.19" style="fill:#00a6a6"/><polygon points="158.78 28.61 238.06 0 238.06 57.19 238 57.2 158.78 28.61" style="fill:#00a6a6"/><polygon points="158.71 85.81 158.71 28.63 158.78 28.61 238 57.2 158.71 85.81" style="fill:#0c2e3a"/><polygon points="158.71 85.9 158.71 85.81 238 57.2 238.06 57.23 238.06 114.53 158.71 85.9" style="fill:#0c2e3a"/><polygon points="158.71 200.43 158.71 143.13 238.06 171.77 238.06 171.79 158.71 200.43" style="fill:#f5340b"/><polygon points="158.71 143.13 158.71 143.08 237.96 114.49 238.06 114.53 238.06 171.77 158.71 143.13" style="fill:#f5340b"/><polygon points="158.71 143.08 158.71 85.9 237.96 114.49 158.71 143.08" style="fill:#00a6a6"/><polygon points="79.43 114.5 158.71 85.9 158.71 143.08 158.65 143.1 79.43 114.5" style="fill:#ff823b"/><polygon points="79.35 171.79 79.35 171.71 158.65 143.1 158.71 143.13 158.71 200.43 79.35 171.79" style="fill:#ffa73b"/><polygon points="238.14 114.5 317.41 85.9 317.41 143.08 317.36 143.1 238.14 114.5" style="fill:#f5340b"/><polygon points="238.06 171.71 238.06 114.53 238.14 114.5 317.36 143.1 238.06 171.71" style="fill:#f5340b"/><polygon points="238.06 171.79 238.06 171.71 317.36 143.1 317.41 143.13 317.41 200.43 238.06 171.79" style="fill:none"/><polygon points="317.41 200.43 317.41 143.13 396.76 171.77 396.76 171.79 317.41 200.43" style="fill:#f5340b"/><polygon points="317.41 143.13 317.41 143.08 396.66 114.49 396.76 114.53 396.76 171.77 317.41 143.13" style="fill:#e3651d"/><polygon points="238.06 171.79 238.06 171.71 317.36 143.1 317.41 143.13 317.41 200.43 238.06 171.79" style="fill:#ffa73b"/><polygon points="396.76 171.71 396.76 114.53 396.84 114.5 476.06 143.1 396.76 171.71" style="fill:#ffa73b"/><polygon points="499.51 154.72 499.51 131.5 499.54 131.49 531.71 143.1 499.51 154.72" style="fill:#ffd497"/><polygon points="396.77 286.32 396.77 229.02 476.11 257.67 476.11 257.69 396.77 286.32" style="fill:#ffd497"/><polygon points="317.49 200.4 396.77 171.79 396.77 228.98 396.71 229 317.49 200.4" style="fill:#ff823b"/><polygon points="317.41 257.61 317.41 200.43 317.49 200.4 396.71 229 317.41 257.61" style="fill:#ff823b"/><polygon points="317.41 257.69 317.41 257.61 396.71 229 396.77 229.02 396.77 286.32 317.41 257.69" style="fill:#ffa73b"/><polygon points="396.77 114.53 396.77 57.23 476.11 85.87 476.11 85.9 396.77 114.53" style="fill:#ff7c4e"/><polygon points="317.49 28.61 396.77 0 396.77 57.19 396.71 57.2 317.49 28.61" style="fill:#f54132"/><polygon points="317.41 85.81 317.41 28.63 317.49 28.61 396.71 57.2 317.41 85.81" style="fill:#f54132"/><polygon points="317.41 85.9 317.41 85.81 396.71 57.2 396.77 57.23 396.77 114.53 317.41 85.9" style="fill:#f54132"/><polygon points="317.41 200.43 317.41 143.13 396.76 171.77 396.76 171.79 317.41 200.43" style="fill:#ffa73b"/><polygon points="317.41 143.13 317.41 143.08 396.66 114.49 396.76 114.53 396.76 171.77 317.41 143.13" style="fill:#ffa73b"/><polygon points="317.41 143.08 317.41 85.9 396.66 114.49 317.41 143.08" style="fill:#e3651d"/><polygon points="238.14 114.5 317.41 85.9 317.41 143.08 317.36 143.1 238.14 114.5" style="fill:#78001b"/><polygon points="238.06 171.79 238.06 171.71 317.36 143.1 317.41 143.13 317.41 200.43 238.06 171.79" style="fill:#ffa73b"/></g></g></g></g></g></svg>